<?xml version="1.0" encoding="UTF-8" standalone="no"?>
<svg
   xmlns:dc="http://purl.org/dc/elements/1.1/"
   xmlns:cc="http://creativecommons.org/ns#"
   xmlns:rdf="http://www.w3.org/1999/02/22-rdf-syntax-ns#"
   xmlns:svg="http://www.w3.org/2000/svg"
   xmlns="http://www.w3.org/2000/svg"
   xmlns:sodipodi="http://sodipodi.sourceforge.net/DTD/sodipodi-0.dtd"
   xmlns:inkscape="http://www.inkscape.org/namespaces/inkscape"
   width="160"
   height="160"
   version="1.1"
   id="svg4"
   sodipodi:docname="no-downloads.svg"
   inkscape:version="1.0 (4035a4fb49, 2020-05-01)">
  <metadata
     id="metadata10">
    <rdf:RDF>
      <cc:Work
         rdf:about="">
        <dc:format>image/svg+xml</dc:format>
        <dc:type
           rdf:resource="http://purl.org/dc/dcmitype/StillImage" />
        <dc:title></dc:title>
      </cc:Work>
    </rdf:RDF>
  </metadata>
  <defs
     id="defs8" />
  <sodipodi:namedview
     fit-margin-bottom="0"
     fit-margin-right="0"
     fit-margin-left="0"
     fit-margin-top="0"
     inkscape:document-rotation="0"
     pagecolor="#ffffff"
     bordercolor="#666666"
     borderopacity="1"
     objecttolerance="10"
     gridtolerance="10"
     guidetolerance="10"
     inkscape:pageopacity="0"
     inkscape:pageshadow="2"
     inkscape:window-width="2526"
     inkscape:window-height="1346"
     id="namedview6"
     showgrid="false"
     inkscape:zoom="1"
     inkscape:cx="21.763856"
     inkscape:cy="79.38345"
     inkscape:window-x="1289"
     inkscape:window-y="1096"
     inkscape:window-maximized="0"
     inkscape:current-layer="svg4" />
  <path
     d="m 99.64519,49.934607 c 1.48146,-2.566822 4.76931,-3.443165 7.33076,-1.964391 l 23.2638,13.431585 c 2.56683,1.481454 3.44315,4.769308 1.9644,7.330748 l -13.43159,23.263808 c -1.48146,2.56682 -4.76931,3.44316 -7.33076,1.96438 L 88.178,80.529164 c -2.56681,-1.481461 -3.44317,-4.769315 -1.9644,-7.330755 z m 1.6663,20.089186 1.37852,8.055367 11.04111,-4.502554 1.87354,15.552171 -25.32353,-14.620775 11.03036,-4.484656 z M 55.10881,66.74937 29.29072,80.477245 c -2.02839,1.078641 -2.80582,3.620845 -1.72716,5.649677 l 13.72787,25.818538 c 1.07865,2.02839 3.62084,2.80581 5.64968,1.72718 L 72.75964,99.944757 c 2.0284,-1.07865 2.80583,-3.62085 1.72718,-5.64968 L 60.7585,68.476987 c -1.07865,-2.028386 -3.62085,-2.805818 -5.64969,-1.72717 z m -6.94629,38.67008 c -1.17397,0.62435 -2.64513,0.17454 -3.26905,-0.99943 l -4.53835,-8.535613 c -3.12987,-5.886451 -0.88978,-13.213619 4.99622,-16.343483 5.88645,-3.12941 13.21363,-0.889323 16.34348,4.99668 l 4.53837,8.536053 c 0.62435,1.17353 0.17454,2.6447 -0.99943,3.26861 l -4.97923,2.64738 -3.78195,-7.11324 3.55637,-1.890983 -1.89098,-3.556394 c -2.0897,-3.93011 -6.96553,-5.42097 -10.8952,-3.331259 -3.93011,2.089704 -5.42098,6.965536 -3.33126,10.895196 l 1.89097,3.55684 3.55685,-1.89098 3.78198,7.113233 -4.97923,2.64739 z m 9.71496,-89.887779 c -2.09059,-0.368798 -4.07646,0.998971 -4.4354,3.035418 l -5.24151,29.617069 c -0.3594,2.036446 1.03836,4.000827 3.12941,4.369181 l 22.82922,4.025443 c 2.09059,0.368798 4.09526,-0.995845 4.45422,-3.032292 L 82.53054,31.331793 73.08413,18.213507 Z m 11.05677,15.583946 1.86549,-10.578775 8.71331,12.443799 z m 33.40219,78.500683 5.36547,7.23408 -5.28894,0.93274 -5.36637,-7.23452 -3.96636,0.69955 5.36547,7.23453 -5.28895,0.93274 -5.36636,-7.23454 -3.96636,0.69957 5.3659,7.23451 -5.28936,0.93228 -5.36638,-7.23406 -1.32212,0.23274 c -2.30052,0.40594 -3.64636,2.40701 -3.26727,4.66681 l 3.96369,22.47921 c 0.39789,2.25574 2.36584,3.67322 4.66636,3.26727 l 29.09117,-5.12916 c 2.30052,-0.40595 3.66515,-2.41062 3.26727,-4.66681 l -4.66324,-26.44605 z"
     fill="#9aa0a6"
     fill-rule="evenodd"
     id="path2"
     style="stroke-width:0.447571" />
</svg>
